<?xml version="1.0" encoding="UTF-8" standalone="no"?>
<!DOCTYPE svg PUBLIC "-//W3C//DTD SVG 1.1//EN"
 "http://www.w3.org/Graphics/SVG/1.1/DTD/svg11.dtd">
<!-- Generated by graphviz version 2.40.1 (20161225.0304)
 -->
<!-- Title: dependencies Pages: 1 -->
<svg width="2014pt" height="284pt"
 viewBox="0.00 0.00 2014.00 284.00" xmlns="http://www.w3.org/2000/svg" xmlns:xlink="http://www.w3.org/1999/xlink">
<g id="graph0" class="graph" transform="scale(1 1) rotate(0) translate(4 280)">
<title>dependencies</title>
<polygon fill="#ffffff" stroke="transparent" points="-4,4 -4,-280 2010,-280 2010,4 -4,4"/>
<text text-anchor="start" x="982.0091" y="-42.4" font-family="sans-serif" font-weight="bold" font-size="14.00" fill="#000000">Legend</text>
<polygon fill="#ffffb3" stroke="transparent" points="769,-10 769,-30 789,-30 789,-10 769,-10"/>
<text text-anchor="start" x="792.629" y="-15.4" font-family="sans-serif" font-size="14.00" fill="#000000"> &#160;Declarations</text>
<polygon fill="#8dd3c7" stroke="transparent" points="882,-10 882,-30 902,-30 902,-10 882,-10"/>
<text text-anchor="start" x="905.7251" y="-15.4" font-family="sans-serif" font-size="14.00" fill="#000000"> &#160;Module</text>
<polygon fill="#80b1d3" stroke="transparent" points="968,-10 968,-30 988,-30 988,-10 968,-10"/>
<text text-anchor="start" x="991.7812" y="-15.4" font-family="sans-serif" font-size="14.00" fill="#000000"> &#160;Bootstrap</text>
<polygon fill="#fdb462" stroke="transparent" points="1065,-10 1065,-30 1085,-30 1085,-10 1065,-10"/>
<text text-anchor="start" x="1088.6732" y="-15.4" font-family="sans-serif" font-size="14.00" fill="#000000"> &#160;Providers</text>
<polygon fill="#fb8072" stroke="transparent" points="1161,-10 1161,-30 1181,-30 1181,-10 1161,-10"/>
<text text-anchor="start" x="1184.7258" y="-15.4" font-family="sans-serif" font-size="14.00" fill="#000000"> &#160;Exports</text>
<g id="clust1" class="cluster">
<title>cluster_AppModule</title>
<polygon fill="none" stroke="#000000" stroke-dasharray="1,5" points="8,-70 8,-268 1998,-268 1998,-70 8,-70"/>
</g>
<g id="clust2" class="cluster">
<title>cluster_AppModule_declarations</title>
<polygon fill="none" stroke="#000000" points="302,-78 302,-130 1990,-130 1990,-78 302,-78"/>
</g>
<g id="clust13" class="cluster">
<title>cluster_AppModule_imports</title>
<polygon fill="none" stroke="#000000" points="156,-78 156,-130 294,-130 294,-78 156,-78"/>
</g>
<g id="clust15" class="cluster">
<title>cluster_AppModule_bootstrap</title>
<polygon fill="none" stroke="#000000" points="921,-208 921,-260 1045,-260 1045,-208 921,-208"/>
</g>
<g id="clust16" class="cluster">
<title>cluster_AppModule_providers</title>
<polygon fill="none" stroke="#000000" points="16,-78 16,-130 148,-130 148,-78 16,-78"/>
</g>
<!-- AppComponent -->
<g id="node1" class="node">
<title>AppComponent</title>
<polygon fill="#ffffb3" stroke="#000000" points="1981.9399,-122 1876.0601,-122 1876.0601,-86 1981.9399,-86 1981.9399,-122"/>
<text text-anchor="middle" x="1929" y="-99.8" font-family="Times,serif" font-size="14.00" fill="#000000">AppComponent</text>
</g>
<!-- AppModule -->
<g id="node11" class="node">
<title>AppModule</title>
<polygon fill="#8dd3c7" stroke="#000000" points="1024.6571,-187 1021.6571,-191 1000.6571,-191 997.6571,-187 941.3429,-187 941.3429,-151 1024.6571,-151 1024.6571,-187"/>
<text text-anchor="middle" x="983" y="-164.8" font-family="Times,serif" font-size="14.00" fill="#000000">AppModule</text>
</g>
<!-- AppComponent&#45;&gt;AppModule -->
<g id="edge1" class="edge">
<title>AppComponent&#45;&gt;AppModule</title>
<path fill="none" stroke="#000000" d="M1929,-122.2479C1929,-145.0179 1929,-181 1929,-181 1929,-181 1034.8691,-181 1034.8691,-181"/>
<polygon fill="#000000" stroke="#000000" points="1034.8691,-177.5001 1024.8691,-181 1034.869,-184.5001 1034.8691,-177.5001"/>
</g>
<!-- GridPublicationsComponent -->
<g id="node2" class="node">
<title>GridPublicationsComponent</title>
<polygon fill="#ffffb3" stroke="#000000" points="1858.2091,-122 1681.7909,-122 1681.7909,-86 1858.2091,-86 1858.2091,-122"/>
<text text-anchor="middle" x="1770" y="-99.8" font-family="Times,serif" font-size="14.00" fill="#000000">GridPublicationsComponent</text>
</g>
<!-- GridPublicationsComponent&#45;&gt;AppModule -->
<g id="edge2" class="edge">
<title>GridPublicationsComponent&#45;&gt;AppModule</title>
<path fill="none" stroke="#000000" d="M1770,-122.2843C1770,-143.3211 1770,-175 1770,-175 1770,-175 1034.7569,-175 1034.7569,-175"/>
<polygon fill="#000000" stroke="#000000" points="1034.7569,-171.5001 1024.7569,-175 1034.7568,-178.5001 1034.7569,-171.5001"/>
</g>
<!-- GridColumnStatusComponent -->
<g id="node3" class="node">
<title>GridColumnStatusComponent</title>
<polygon fill="#ffffb3" stroke="#000000" points="1664.3313,-122 1477.6687,-122 1477.6687,-86 1664.3313,-86 1664.3313,-122"/>
<text text-anchor="middle" x="1571" y="-99.8" font-family="Times,serif" font-size="14.00" fill="#000000">GridColumnStatusComponent</text>
</g>
<!-- GridColumnStatusComponent&#45;&gt;AppModule -->
<g id="edge3" class="edge">
<title>GridColumnStatusComponent&#45;&gt;AppModule</title>
<path fill="none" stroke="#000000" d="M1571,-122.1061C1571,-141.3391 1571,-169 1571,-169 1571,-169 1034.8161,-169 1034.8161,-169"/>
<polygon fill="#000000" stroke="#000000" points="1034.8162,-165.5001 1024.8161,-169 1034.8161,-172.5001 1034.8162,-165.5001"/>
</g>
<!-- ToolPublisherComponent -->
<g id="node4" class="node">
<title>ToolPublisherComponent</title>
<polygon fill="#ffffb3" stroke="#000000" points="1460.1596,-122 1299.8404,-122 1299.8404,-86 1460.1596,-86 1460.1596,-122"/>
<text text-anchor="middle" x="1380" y="-99.8" font-family="Times,serif" font-size="14.00" fill="#000000">ToolPublisherComponent</text>
</g>
<!-- ToolPublisherComponent&#45;&gt;AppModule -->
<g id="edge4" class="edge">
<title>ToolPublisherComponent&#45;&gt;AppModule</title>
<path fill="none" stroke="#000000" d="M1380,-122.0225C1380,-139.3734 1380,-163 1380,-163 1380,-163 1034.7356,-163 1034.7356,-163"/>
<polygon fill="#000000" stroke="#000000" points="1034.7356,-159.5001 1024.7356,-163 1034.7356,-166.5001 1034.7356,-159.5001"/>
</g>
<!-- MenuMainComponent -->
<g id="node5" class="node">
<title>MenuMainComponent</title>
<polygon fill="#ffffb3" stroke="#000000" points="1281.5421,-122 1138.4579,-122 1138.4579,-86 1281.5421,-86 1281.5421,-122"/>
<text text-anchor="middle" x="1210" y="-99.8" font-family="Times,serif" font-size="14.00" fill="#000000">MenuMainComponent</text>
</g>
<!-- MenuMainComponent&#45;&gt;AppModule -->
<g id="edge5" class="edge">
<title>MenuMainComponent&#45;&gt;AppModule</title>
<path fill="none" stroke="#000000" d="M1210,-122.2396C1210,-137.5706 1210,-157 1210,-157 1210,-157 1034.8998,-157 1034.8998,-157"/>
<polygon fill="#000000" stroke="#000000" points="1034.8999,-153.5001 1024.8998,-157 1034.8998,-160.5001 1034.8999,-153.5001"/>
</g>
<!-- HeaderComponent -->
<g id="node6" class="node">
<title>HeaderComponent</title>
<polygon fill="#ffffb3" stroke="#000000" points="1119.7437,-122 998.2563,-122 998.2563,-86 1119.7437,-86 1119.7437,-122"/>
<text text-anchor="middle" x="1059" y="-99.8" font-family="Times,serif" font-size="14.00" fill="#000000">HeaderComponent</text>
</g>
<!-- HeaderComponent&#45;&gt;AppModule -->
<g id="edge6" class="edge">
<title>HeaderComponent&#45;&gt;AppModule</title>
<path fill="none" stroke="#000000" d="M1011.4783,-122.1061C1011.4783,-122.1061 1011.4783,-140.991 1011.4783,-140.991"/>
<polygon fill="#000000" stroke="#000000" points="1007.9783,-140.9909 1011.4783,-150.991 1014.9783,-140.991 1007.9783,-140.9909"/>
</g>
<!-- ToolMenusComponent -->
<g id="node7" class="node">
<title>ToolMenusComponent</title>
<polygon fill="#ffffb3" stroke="#000000" points="979.8794,-122 834.1206,-122 834.1206,-86 979.8794,-86 979.8794,-122"/>
<text text-anchor="middle" x="907" y="-99.8" font-family="Times,serif" font-size="14.00" fill="#000000">ToolMenusComponent</text>
</g>
<!-- ToolMenusComponent&#45;&gt;AppModule -->
<g id="edge7" class="edge">
<title>ToolMenusComponent&#45;&gt;AppModule</title>
<path fill="none" stroke="#000000" d="M960.5558,-122.1061C960.5558,-122.1061 960.5558,-140.991 960.5558,-140.991"/>
<polygon fill="#000000" stroke="#000000" points="957.0558,-140.9909 960.5558,-150.991 964.0558,-140.991 957.0558,-140.9909"/>
</g>
<!-- ToolSelectorComponent -->
<g id="node8" class="node">
<title>ToolSelectorComponent</title>
<polygon fill="#ffffb3" stroke="#000000" points="815.6442,-122 662.3558,-122 662.3558,-86 815.6442,-86 815.6442,-122"/>
<text text-anchor="middle" x="739" y="-99.8" font-family="Times,serif" font-size="14.00" fill="#000000">ToolSelectorComponent</text>
</g>
<!-- ToolSelectorComponent&#45;&gt;AppModule -->
<g id="edge8" class="edge">
<title>ToolSelectorComponent&#45;&gt;AppModule</title>
<path fill="none" stroke="#000000" d="M739,-122.2396C739,-137.5706 739,-157 739,-157 739,-157 931.3321,-157 931.3321,-157"/>
<polygon fill="#000000" stroke="#000000" points="931.3322,-160.5001 941.3321,-157 931.3321,-153.5001 931.3322,-160.5001"/>
</g>
<!-- ToolTaggerComponent -->
<g id="node9" class="node">
<title>ToolTaggerComponent</title>
<polygon fill="#ffffb3" stroke="#000000" points="643.9186,-122 496.0814,-122 496.0814,-86 643.9186,-86 643.9186,-122"/>
<text text-anchor="middle" x="570" y="-99.8" font-family="Times,serif" font-size="14.00" fill="#000000">ToolTaggerComponent</text>
</g>
<!-- ToolTaggerComponent&#45;&gt;AppModule -->
<g id="edge9" class="edge">
<title>ToolTaggerComponent&#45;&gt;AppModule</title>
<path fill="none" stroke="#000000" d="M570,-122.0225C570,-139.3734 570,-163 570,-163 570,-163 931.1265,-163 931.1265,-163"/>
<polygon fill="#000000" stroke="#000000" points="931.1266,-166.5001 941.1265,-163 931.1265,-159.5001 931.1266,-166.5001"/>
</g>
<!-- ToolFacsimilesComponent -->
<g id="node10" class="node">
<title>ToolFacsimilesComponent</title>
<polygon fill="#ffffb3" stroke="#000000" points="477.654,-122 310.346,-122 310.346,-86 477.654,-86 477.654,-122"/>
<text text-anchor="middle" x="394" y="-99.8" font-family="Times,serif" font-size="14.00" fill="#000000">ToolFacsimilesComponent</text>
</g>
<!-- ToolFacsimilesComponent&#45;&gt;AppModule -->
<g id="edge10" class="edge">
<title>ToolFacsimilesComponent&#45;&gt;AppModule</title>
<path fill="none" stroke="#000000" d="M394,-122.1061C394,-141.3391 394,-169 394,-169 394,-169 931.1128,-169 931.1128,-169"/>
<polygon fill="#000000" stroke="#000000" points="931.1128,-172.5001 941.1128,-169 931.1127,-165.5001 931.1128,-172.5001"/>
</g>
<!-- AppComponent  -->
<g id="node13" class="node">
<title>AppComponent </title>
<polygon fill="#80b1d3" stroke="#000000" points="1037.439,-252 928.561,-252 928.561,-216 1037.439,-216 1037.439,-252"/>
<text text-anchor="middle" x="983" y="-229.8" font-family="Times,serif" font-size="14.00" fill="#000000">AppComponent </text>
</g>
<!-- AppModule&#45;&gt;AppComponent  -->
<g id="edge12" class="edge">
<title>AppModule&#45;&gt;AppComponent </title>
<path fill="none" stroke="#000000" stroke-dasharray="1,5" d="M983,-187.1061C983,-187.1061 983,-205.991 983,-205.991"/>
<polygon fill="#000000" stroke="#000000" points="979.5001,-205.9909 983,-215.991 986.5001,-205.991 979.5001,-205.9909"/>
</g>
<!-- AppConfigModule -->
<g id="node12" class="node">
<title>AppConfigModule</title>
<polygon fill="#8dd3c7" stroke="#000000" points="286.045,-122 283.045,-126 262.045,-126 259.045,-122 163.955,-122 163.955,-86 286.045,-86 286.045,-122"/>
<text text-anchor="middle" x="225" y="-99.8" font-family="Times,serif" font-size="14.00" fill="#000000">AppConfigModule</text>
</g>
<!-- AppConfigModule&#45;&gt;AppModule -->
<g id="edge11" class="edge">
<title>AppConfigModule&#45;&gt;AppModule</title>
<path fill="none" stroke="#000000" d="M225,-122.2843C225,-143.3211 225,-175 225,-175 225,-175 931.1669,-175 931.1669,-175"/>
<polygon fill="#000000" stroke="#000000" points="931.167,-178.5001 941.1669,-175 931.1669,-171.5001 931.167,-178.5001"/>
</g>
<!-- DataService -->
<g id="node14" class="node">
<title>DataService</title>
<ellipse fill="#fdb462" stroke="#000000" cx="82" cy="-104" rx="58.4415" ry="18"/>
<text text-anchor="middle" x="82" y="-99.8" font-family="Times,serif" font-size="14.00" fill="#000000">DataService</text>
</g>
<!-- DataService&#45;&gt;AppModule -->
<g id="edge13" class="edge">
<title>DataService&#45;&gt;AppModule</title>
<path fill="none" stroke="#000000" d="M82,-122.2479C82,-145.0179 82,-181 82,-181 82,-181 931.0511,-181 931.0511,-181"/>
<polygon fill="#000000" stroke="#000000" points="931.0512,-184.5001 941.0511,-181 931.0511,-177.5001 931.0512,-184.5001"/>
</g>
</g>
</svg>
